<svg width="40" height="40" viewBox="0 0 40 40" fill="none" xmlns="http://www.w3.org/2000/svg">
<path d="M20 3.3335C10.8 3.3335 3.33334 10.8002 3.33334 20.0002C3.33334 29.2002 10.8 36.6668 20 36.6668C29.2 36.6668 36.6667 29.2002 36.6667 20.0002C36.6667 10.8002 29.2 3.3335 20 3.3335ZM26.6667 21.6668H21.6667V26.6668C21.6667 27.5835 20.9167 28.3335 20 28.3335C19.0833 28.3335 18.3333 27.5835 18.3333 26.6668V21.6668H13.3333C12.4167 21.6668 11.6667 20.9168 11.6667 20.0002C11.6667 19.0835 12.4167 18.3335 13.3333 18.3335H18.3333V13.3335C18.3333 12.4168 19.0833 11.6668 20 11.6668C20.9167 11.6668 21.6667 12.4168 21.6667 13.3335V18.3335H26.6667C27.5833 18.3335 28.3333 19.0835 28.3333 20.0002C28.3333 20.9168 27.5833 21.6668 26.6667 21.6668Z" fill="#0096C8"/>
</svg>
