<svg width="40" height="40" viewBox="0 0 40 40" fill="none" xmlns="http://www.w3.org/2000/svg">
<path d="M28.6833 14.9995L21.3833 4.06621C21.0667 3.59954 20.5333 3.36621 20 3.36621C19.4667 3.36621 18.9333 3.59954 18.6167 4.08288L11.3167 14.9995H3.33332C2.41666 14.9995 1.66666 15.7495 1.66666 16.6662C1.66666 16.8162 1.68332 16.9662 1.73332 17.1162L5.96666 32.5662C6.34999 33.9662 7.63332 34.9995 9.16666 34.9995H30.8333C32.3667 34.9995 33.65 33.9662 34.05 32.5662L38.2833 17.1162L38.3333 16.6662C38.3333 15.7495 37.5833 14.9995 36.6667 14.9995H28.6833ZM15 14.9995L20 7.66621L25 14.9995H15ZM20 28.3329C18.1667 28.3329 16.6667 26.8329 16.6667 24.9995C16.6667 23.1662 18.1667 21.6662 20 21.6662C21.8333 21.6662 23.3333 23.1662 23.3333 24.9995C23.3333 26.8329 21.8333 28.3329 20 28.3329Z" fill="#C0504D"/>
</svg>
