<svg width="32" height="32" viewBox="0 0 32 32" fill="none" xmlns="http://www.w3.org/2000/svg">
<circle cx="16" cy="16" r="15.5" fill="white" stroke="#8064A2"/>
<path d="M21.1429 16.8571H16.8571V21.1429C16.8571 21.6143 16.4714 22 16 22C15.5286 22 15.1429 21.6143 15.1429 21.1429V16.8571H10.8571C10.3857 16.8571 10 16.4714 10 16C10 15.5286 10.3857 15.1429 10.8571 15.1429H15.1429V10.8571C15.1429 10.3857 15.5286 10 16 10C16.4714 10 16.8571 10.3857 16.8571 10.8571V15.1429H21.1429C21.6143 15.1429 22 15.5286 22 16C22 16.4714 21.6143 16.8571 21.1429 16.8571Z" fill="#8064A2"/>
</svg>
